<svg width="20" height="20" viewBox="0 0 20 20" fill="none" xmlns="http://www.w3.org/2000/svg">
<path d="M12.1149 9.99991L18.5649 3.56491C18.8474 3.28246 19.006 2.89936 19.006 2.49991C19.006 2.10046 18.8474 1.71737 18.5649 1.43491C18.2825 1.15246 17.8994 0.993774 17.4999 0.993774C17.1005 0.993774 16.7174 1.15246 16.4349 1.43491L9.99991 7.88491L3.56491 1.43491C3.28245 1.15246 2.89936 0.993774 2.49991 0.993774C2.10046 0.993774 1.71736 1.15246 1.43491 1.43491C1.15245 1.71737 0.993771 2.10046 0.993771 2.49991C0.993771 2.89936 1.15245 3.28246 1.43491 3.56491L7.88491 9.99991L1.43491 16.4349C1.29432 16.5744 1.18272 16.7403 1.10657 16.923C1.03042 17.1058 0.991211 17.3019 0.991211 17.4999C0.991211 17.6979 1.03042 17.894 1.10657 18.0768C1.18272 18.2596 1.29432 18.4255 1.43491 18.5649C1.57435 18.7055 1.74025 18.8171 1.92304 18.8933C2.10583 18.9694 2.30189 19.0086 2.49991 19.0086C2.69793 19.0086 2.89398 18.9694 3.07677 18.8933C3.25956 18.8171 3.42546 18.7055 3.56491 18.5649L9.99991 12.1149L16.4349 18.5649C16.5744 18.7055 16.7403 18.8171 16.923 18.8933C17.1058 18.9694 17.3019 19.0086 17.4999 19.0086C17.6979 19.0086 17.894 18.9694 18.0768 18.8933C18.2596 18.8171 18.4255 18.7055 18.5649 18.5649C18.7055 18.4255 18.8171 18.2596 18.8932 18.0768C18.9694 17.894 19.0086 17.6979 19.0086 17.4999C19.0086 17.3019 18.9694 17.1058 18.8932 16.923C18.8171 16.7403 18.7055 16.5744 18.5649 16.4349L12.1149 9.99991Z" fill="#161E2E"/>
</svg>
