<svg width="45" height="45" viewBox="0 0 45 45" fill="none" xmlns="http://www.w3.org/2000/svg">
<g clip-path="url(#clip0_156_12879)">
<path d="M23.0313 7.64478H21.9873C21.5019 7.64478 21.1084 8.03826 21.1084 8.52368C21.1084 9.0091 21.5019 9.40259 21.9873 9.40259H23.0313C23.5167 9.40259 23.9102 9.0091 23.9102 8.52368C23.9102 8.03826 23.5167 7.64478 23.0313 7.64478Z" fill="#00B871"/>
<path d="M27.8604 7.64478H26.8164C26.331 7.64478 25.9375 8.03826 25.9375 8.52368C25.9375 9.0091 26.331 9.40259 26.8164 9.40259H27.8604C28.3458 9.40259 28.7393 9.0091 28.7393 8.52368C28.7393 8.03826 28.3458 7.64478 27.8604 7.64478Z" fill="#00B871"/>
<path d="M32.689 7.64478H31.645C31.1596 7.64478 30.7661 8.03826 30.7661 8.52368C30.7661 9.0091 31.1596 9.40259 31.645 9.40259H32.689C33.1744 9.40259 33.5679 9.0091 33.5679 8.52368C33.5679 8.03826 33.1744 7.64478 32.689 7.64478Z" fill="#00B871"/>
<path d="M13.1747 7.64478H5.64014C5.15472 7.64478 4.76123 8.03826 4.76123 8.52368C4.76123 9.0091 5.15472 9.40259 5.64014 9.40259H13.1747C13.6602 9.40259 14.0536 9.0091 14.0536 8.52368C14.0536 8.03826 13.6602 7.64478 13.1747 7.64478Z" fill="#00B871"/>
<path d="M12.6416 17.061C10.616 17.061 8.96803 18.7135 8.96803 20.7447V21.0216H6.62451C6.13909 21.0216 5.74561 21.415 5.74561 21.9005V31.8826C5.74561 33.5339 7.0891 34.8773 8.74039 34.8773H16.5628C18.2142 34.8773 19.5576 33.5338 19.5576 31.8826V21.9005C19.5576 21.415 19.1641 21.0216 18.6787 21.0216H16.3151V20.7447C16.3152 18.7136 14.6672 17.061 12.6416 17.061ZM10.7259 20.7447C10.7259 19.6828 11.5853 18.8188 12.6417 18.8188C13.698 18.8188 14.5573 19.6828 14.5573 20.7447V21.0216H10.7259V20.7447ZM17.7999 22.7794V31.8826C17.7999 32.5647 17.245 33.1195 16.5629 33.1195H8.74039C8.05827 33.1195 7.50342 32.5646 7.50342 31.8826V22.7794H8.96812V24.632C8.96812 25.1174 9.3616 25.5109 9.84702 25.5109C10.3324 25.5109 10.7259 25.1174 10.7259 24.632V22.7794H14.5573V24.632C14.5573 25.1174 14.9508 25.5109 15.4363 25.5109C15.9217 25.5109 16.3152 25.1174 16.3152 24.632V22.7794H17.7999Z" fill="#00B871"/>
<path d="M32.8622 38.702H2.95436C2.29456 38.702 1.75781 38.1679 1.75781 37.5114V13.5065H35.5998V21.8764H37.3577V6.48988C37.3577 4.86408 36.0324 3.5415 34.4033 3.5415H2.95436C1.3253 3.54142 0 4.86408 0 6.48988V37.5114C0 39.1372 1.3253 40.4598 2.95436 40.4598H35.6616C34.7801 40.0316 33.7838 39.4534 32.8622 38.702ZM1.75781 6.48988C1.75781 5.83334 2.29456 5.29932 2.95436 5.29932H34.4033C35.0631 5.29932 35.5998 5.83343 35.5998 6.48988V11.7486H1.75781V6.48988Z" fill="#00B871"/>
<path d="M42.7175 24.1137C40.5299 24.1137 38.6431 22.8392 37.7651 20.9973H35.1923C34.3145 22.8392 32.4275 24.1137 30.24 24.1137C29.4253 24.1137 28.6524 23.9368 27.9575 23.62V32.6248C27.9575 39.2111 36.4787 41.4587 36.4787 41.4587C36.4787 41.4587 45 39.2111 45 32.6248V23.62C44.3051 23.9368 43.5321 24.1137 42.7175 24.1137Z" fill="#2FDF84"/>
<path d="M36.2165 33.8104C35.9849 33.8104 35.7621 33.719 35.5972 33.555L34.1242 32.0917C33.7799 31.7495 33.778 31.1931 34.1202 30.8487C34.4622 30.5044 35.0188 30.5025 35.3631 30.8447L36.1598 31.6362L38.4909 28.8752C38.804 28.5043 39.3585 28.4574 39.7294 28.7707C40.1003 29.0838 40.1472 29.6383 39.834 30.0092L36.8881 33.4986C36.7297 33.6861 36.5002 33.7989 36.2549 33.8097C36.2422 33.8101 36.2294 33.8104 36.2165 33.8104Z" fill="#00B871"/>
</g>
<defs>
<clipPath id="clip0_156_12879">
<rect width="45" height="45" fill="white"/>
</clipPath>
</defs>
</svg>
