<svg width="45" height="45" viewBox="0 0 45 45" fill="none" xmlns="http://www.w3.org/2000/svg">
<g clip-path="url(#clip0_156_12846)">
<path d="M16.1381 33.7469C16.1381 34.7946 16.9874 35.6439 18.035 35.6439H26.9647C28.0124 35.6439 28.8617 34.7946 28.8617 33.7469H35.7981V16.8167H9.20166V33.7469H16.1381Z" fill="#2FDF84"/>
<path d="M20.4838 31.7734C20.3704 31.7734 20.2552 31.7513 20.144 31.7047C19.6964 31.5169 19.4858 31.0018 19.6737 30.5541L23.8398 20.6271C24.0276 20.1795 24.5426 19.9691 24.9904 20.1568C25.4379 20.3446 25.6485 20.8597 25.4607 21.3073L21.2946 31.2344C21.1534 31.5708 20.8272 31.7734 20.4838 31.7734Z" fill="#00B871"/>
<path d="M19.295 25.6616C17.7952 25.6616 16.5752 24.3078 16.5752 22.6436C16.5752 20.9794 17.7953 19.6255 19.295 19.6255C20.7946 19.6255 22.0147 20.9794 22.0147 22.6436C22.0147 24.3077 20.7946 25.6616 19.295 25.6616ZM19.295 21.3833C18.7735 21.3833 18.333 21.9604 18.333 22.6436C18.333 23.3267 18.7736 23.9038 19.295 23.9038C19.8163 23.9038 20.2568 23.3267 20.2568 22.6436C20.2568 21.9604 19.8164 21.3833 19.295 21.3833Z" fill="#00B871"/>
<path d="M25.705 32.449C24.2054 32.449 22.9854 31.0951 22.9854 29.4309C22.9854 27.7667 24.2054 26.4128 25.705 26.4128C27.2048 26.4128 28.4248 27.7667 28.4248 29.4309C28.4248 31.0951 27.2047 32.449 25.705 32.449ZM25.705 28.1707C25.1836 28.1707 24.7432 28.7478 24.7432 29.431C24.7432 30.1141 25.1837 30.6913 25.705 30.6913C26.2265 30.6913 26.667 30.1142 26.667 29.431C26.667 28.7478 26.2264 28.1707 25.705 28.1707Z" fill="#00B871"/>
<path d="M44.1211 32.868H43.2964V7.52464C43.2964 5.54991 41.6899 3.94336 39.7151 3.94336H5.28486C3.31014 3.94336 1.70358 5.54991 1.70358 7.52464V32.868H0.878906C0.393486 32.868 0 33.2616 0 33.7469V37.0345C0 39.2522 1.80413 41.0564 4.02188 41.0564H40.9781C43.1958 41.0564 45 39.2523 45 37.0345V33.7469C45 33.2615 44.6064 32.868 44.1211 32.868ZM5.28486 5.70117H39.7151C40.7206 5.70117 41.5386 6.51917 41.5386 7.52464V9.97116H3.4614V7.52464C3.4614 6.51917 4.27931 5.70117 5.28486 5.70117ZM3.4614 11.729H41.5386V32.868H28.8618C28.3765 32.868 27.9829 33.2616 27.9829 33.7469C27.9829 34.3083 27.5262 34.7649 26.9648 34.7649H18.0352C17.4738 34.7649 17.0171 34.3083 17.0171 33.7469C17.0171 33.2616 16.6236 32.868 16.1382 32.868H3.4614V11.729ZM43.2422 37.0345C43.2422 38.2829 42.2265 39.2986 40.9781 39.2986H4.02188C2.77348 39.2986 1.75781 38.2829 1.75781 37.0345V34.6258H15.4019C15.7704 35.7269 16.8116 36.5228 18.0352 36.5228H26.9648C28.1884 36.5228 29.2296 35.7269 29.5981 34.6258H43.2422V37.0345Z" fill="#00B871"/>
<path d="M22.0063 8.61133H22.9937C23.479 8.61133 23.8726 8.21775 23.8726 7.73242C23.8726 7.24709 23.479 6.85352 22.9937 6.85352H22.0063C21.521 6.85352 21.1274 7.24709 21.1274 7.73242C21.1274 8.21775 21.5209 8.61133 22.0063 8.61133Z" fill="#00B871"/>
</g>
<defs>
<clipPath id="clip0_156_12846">
<rect width="45" height="45" fill="white"/>
</clipPath>
</defs>
</svg>
