<svg width="45" height="45" viewBox="0 0 45 45" fill="none" xmlns="http://www.w3.org/2000/svg">
<g clip-path="url(#clip0_156_12894)">
<path d="M28.1431 41.6384H8.04272V11.6926H12.75V16.2193C12.75 16.7048 13.1434 17.0982 13.6289 17.0982C14.1142 17.0982 14.5078 16.7048 14.5078 16.2193V11.6926H26.5615V16.2193C26.5615 16.7048 26.9551 17.0982 27.4404 17.0982C27.9258 17.0982 28.3194 16.7048 28.3194 16.2193V11.6926H32.8796V21.0049H34.6375V10.8137C34.6375 10.3283 34.2439 9.93481 33.7586 9.93481H28.3194V7.74554C28.3194 3.47467 24.8272 0 20.5347 0C19.5509 0 18.609 0.182549 17.7416 0.515391C16.8742 0.182549 15.9324 0 14.9485 0C10.656 0 7.16381 3.47467 7.16381 7.74554V9.93472H1.72461C1.23928 9.93472 0.845703 10.3282 0.845703 10.8136V39.2161C0.845703 41.5209 2.72384 43.3961 5.03237 43.3961H30.796C29.9278 42.9275 29.0081 42.3459 28.1431 41.6384ZM20.5347 1.75781C23.8579 1.75781 26.5615 4.44393 26.5615 7.74554V9.93472H22.7332V7.74554C22.7332 5.35316 21.6375 3.21073 19.9191 1.78875C20.1215 1.76836 20.3269 1.75781 20.5347 1.75781ZM17.7416 2.44055C19.6624 3.44276 20.9755 5.44474 20.9755 7.74563V9.93481H14.5078V7.74554C14.5078 5.44465 15.8209 3.44276 17.7416 2.44055ZM8.92162 7.74554C8.92162 4.44393 11.6253 1.75781 14.9485 1.75781C15.1563 1.75781 15.3616 1.76827 15.564 1.78884C13.8457 3.21073 12.7499 5.35324 12.7499 7.74563V9.93481H8.92153V7.74554H8.92162ZM6.2849 41.6384H5.03237C3.6931 41.6384 2.60352 40.5518 2.60352 39.2162V11.6926H6.2849V41.6384Z" fill="#00B871"/>
<path d="M41.3823 23.9145C38.7253 23.9145 36.4335 22.3651 35.3672 20.126H32.2424C31.1761 22.365 28.8843 23.9145 26.2273 23.9145C25.2379 23.9145 24.2991 23.6994 23.4551 23.3142V34.2611C23.4551 42.2678 33.8048 45.0001 33.8048 45.0001C33.8048 45.0001 44.1546 42.2678 44.1546 34.2611V23.3142C43.3105 23.6994 42.3717 23.9145 41.3823 23.9145Z" fill="#2FDF84"/>
<path d="M33.4647 35.6526C33.233 35.6526 33.0101 35.561 32.8451 35.3969L30.935 33.4977C30.5908 33.1553 30.5892 32.5989 30.9315 32.2547C31.2737 31.9104 31.8302 31.9089 32.1745 32.2512L33.4081 33.4778L36.6133 29.6779C36.9263 29.3069 37.4808 29.2599 37.8517 29.5728C38.2228 29.8858 38.2699 30.4403 37.9569 30.8114L34.1366 35.3405C33.9782 35.5282 33.7487 35.641 33.5033 35.6518C33.4903 35.6523 33.4776 35.6526 33.4647 35.6526Z" fill="#00B871"/>
</g>
<defs>
<clipPath id="clip0_156_12894">
<rect width="45" height="45" fill="white"/>
</clipPath>
</defs>
</svg>
