<svg width="45" height="45" viewBox="0 0 45 45" fill="none" xmlns="http://www.w3.org/2000/svg">
<g clip-path="url(#clip0_156_12835)">
<path d="M22.4996 36.478C30.2195 36.478 36.4777 30.2198 36.4777 22.4999C36.4777 14.78 30.2195 8.52173 22.4996 8.52173C14.7797 8.52173 8.52148 14.78 8.52148 22.4999C8.52148 30.2198 14.7797 36.478 22.4996 36.478Z" fill="#2FDF84"/>
<path d="M42.5052 25.4833C42.0278 25.3912 41.5676 25.7034 41.4758 26.18C39.7287 35.2469 31.7482 41.8276 22.5 41.8276C13.4466 41.8276 5.60818 35.5212 3.64286 26.7497L3.87225 26.9791C4.0439 27.1507 4.26882 27.2366 4.49373 27.2366C4.71864 27.2366 4.94355 27.1507 5.11512 26.9792C5.45842 26.636 5.45842 26.0795 5.1152 25.7362L3.30773 23.9287C3.14294 23.7638 2.91934 23.6711 2.68626 23.6711C2.45317 23.6711 2.22958 23.7638 2.06478 23.9287L0.257399 25.7362C-0.0858142 26.0794 -0.0858142 26.6359 0.257487 26.9792C0.600612 27.3225 1.15722 27.3224 1.50044 26.9791L1.82581 26.6537C3.78726 36.4734 12.4587 43.5854 22.5 43.5854C32.5892 43.5854 41.2957 36.4053 43.2019 26.5126C43.2938 26.036 42.9818 25.5751 42.5052 25.4833Z" fill="#00B871"/>
<path d="M44.7422 18.0208C44.3991 17.6775 43.8425 17.6776 43.4993 18.0209L43.1739 18.3462C41.2124 8.52657 32.541 1.41455 22.4997 1.41455C12.4105 1.41455 3.70404 8.59469 1.79778 18.4873C1.70593 18.964 2.01786 19.4248 2.49449 19.5167C2.97173 19.6084 3.43202 19.2964 3.52386 18.82C5.27104 9.75309 13.2516 3.17236 22.4997 3.17236C31.5531 3.17236 39.3915 9.47878 41.3568 18.2503L41.1274 18.0209C40.7843 17.6777 40.2279 17.6776 39.8845 18.0208C39.5412 18.364 39.5412 18.9204 39.8844 19.2637L41.6918 21.0713C41.8566 21.2362 42.0802 21.3288 42.3133 21.3288C42.5463 21.3288 42.7699 21.2362 42.9347 21.0713L44.7421 19.2637C45.0856 18.9205 45.0856 18.364 44.7422 18.0208Z" fill="#00B871"/>
<path d="M23.4274 26.3742C23.5339 26.4167 23.6438 26.4367 23.7519 26.4367C24.1014 26.4367 24.4318 26.2268 24.5689 25.8823L27.0012 19.7669C27.1806 19.3159 26.9604 18.8048 26.5094 18.6254C26.0585 18.4461 25.5473 18.6662 25.3679 19.1173L22.9355 25.2327C22.7561 25.6837 22.9764 26.1948 23.4274 26.3742Z" fill="#00B871"/>
<path d="M28.394 20.3211H30.4119L28.2654 25.204C28.07 25.6483 28.2719 26.1669 28.7163 26.3623C28.8314 26.4129 28.9514 26.4369 29.0696 26.4369C29.4076 26.4368 29.7299 26.2407 29.8746 25.9115L32.563 19.7961C32.6824 19.5242 32.6567 19.2105 32.4944 18.962C32.3321 18.7133 32.0553 18.5635 31.7584 18.5635H28.394C27.9087 18.5635 27.5151 18.9571 27.5151 19.4424C27.515 19.9275 27.9085 20.3211 28.394 20.3211Z" fill="#00B871"/>
<path d="M17.1436 24.1998C17.3017 24.4676 17.5894 24.6318 17.9004 24.6318H20.0737C20.0713 24.9558 20.0687 25.2662 20.0663 25.5503C20.0621 26.0357 20.4523 26.4326 20.9376 26.4368H20.9454C21.4272 26.4368 21.8199 26.0482 21.8241 25.5654C21.8261 25.3354 21.8287 25.009 21.8317 24.6272C22.2744 24.5816 22.6197 24.2076 22.6197 23.7529C22.6197 23.3022 22.2805 22.9308 21.8434 22.8799C21.8513 21.4493 21.8543 20.0091 21.8364 19.7934C21.7894 19.2282 21.4441 18.7656 20.9569 18.6146C20.4703 18.4641 19.9587 18.6457 19.5881 19.1004C19.24 19.5273 17.7538 22.1994 17.1309 23.3283C16.9806 23.6007 16.9854 23.932 17.1436 24.1998ZM20.0908 21.6467C20.0895 22.0263 20.0876 22.4441 20.0853 22.874H19.3953C19.6396 22.4389 19.877 22.0196 20.0908 21.6467Z" fill="#00B871"/>
<path d="M16.612 26.4822C17.0974 26.4762 17.4858 26.0777 17.4798 25.5923C17.4738 25.1108 17.0814 24.7245 16.6012 24.7245C16.5974 24.7245 16.5937 24.7245 16.5899 24.7246C16.1087 24.7306 15.6031 24.735 15.1464 24.7372C15.4626 24.3091 15.8686 23.7481 16.3814 23.0154C16.786 22.4374 17.0504 21.8879 17.1677 21.3823C17.1965 21.2701 17.2204 21.1115 17.2207 20.9472C17.2226 19.5997 16.1244 18.5034 14.7769 18.5034C13.6118 18.5034 12.6034 19.3324 12.3789 20.4745C12.2854 20.9507 12.5956 21.4127 13.072 21.5063C13.5486 21.6001 14.0103 21.2896 14.1038 20.8133C14.1666 20.4933 14.4497 20.2612 14.7769 20.2612C15.1401 20.2612 15.4382 20.5451 15.4614 20.9026L15.446 21.0229C15.3935 21.2234 15.2626 21.5482 14.9413 22.0074C13.9748 23.3883 13.3982 24.1432 13.0885 24.5487C12.6913 25.0688 12.4725 25.3552 12.6187 25.8309C12.7048 26.1104 12.9243 26.3335 13.2067 26.4277C13.324 26.4668 13.418 26.4981 14.6183 26.4981C15.0896 26.498 15.7314 26.4933 16.612 26.4822Z" fill="#00B871"/>
</g>
<defs>
<clipPath id="clip0_156_12835">
<rect width="45" height="45" fill="white"/>
</clipPath>
</defs>
</svg>
