<svg width="36" height="37" viewBox="0 0 36 37" fill="none" xmlns="http://www.w3.org/2000/svg">
<g clip-path="url(#clip0_164_14079)">
<path d="M20.1732 21.7213C23.0258 18.8688 23.0258 14.2438 20.1732 11.3912C17.3206 8.53862 12.6956 8.53862 9.84304 11.3912C6.99046 14.2438 6.99046 18.8688 9.84304 21.7213C12.6956 24.5739 17.3206 24.5739 20.1732 21.7213Z" fill="#2FDF84"/>
<path d="M15.8735 15.9773C15.7864 15.9465 15.703 15.9169 15.6231 15.8882V14.0271C15.8009 14.0971 15.9257 14.195 15.9917 14.2891C16.2148 14.6069 16.6533 14.6839 16.9712 14.4607C17.289 14.2376 17.3659 13.7991 17.1428 13.4812C16.8454 13.0575 16.3143 12.7015 15.6231 12.5731V12.5035C15.6231 12.1152 15.3083 11.8004 14.92 11.8004C14.5317 11.8004 14.2169 12.1152 14.2169 12.5035V12.6241C14.1388 12.6427 14.0597 12.664 13.9797 12.688C13.1627 12.9342 12.546 13.7269 12.4801 14.6159C12.4148 15.496 12.8823 16.2601 13.7304 16.66C13.8396 16.7115 14.0062 16.7812 14.2169 16.864V19.1266C13.9458 19.0324 13.7019 18.8878 13.5381 18.6843C13.2943 18.3819 12.8518 18.3343 12.5494 18.5778C12.247 18.8214 12.1993 19.264 12.4429 19.5665C12.8987 20.1322 13.5634 20.4425 14.2169 20.5814V20.609C14.2169 20.9974 14.5317 21.3121 14.92 21.3121C15.3001 21.3121 15.6098 21.0104 15.6226 20.6334C16.7753 20.4598 17.5885 19.7156 17.7183 18.6938C17.8661 17.5306 17.1075 16.4135 15.8735 15.9773ZM13.8825 14.7199C13.9004 14.4783 14.0346 14.2469 14.2169 14.1182V15.3272C13.976 15.1796 13.8635 14.9757 13.8825 14.7199ZM16.3233 18.5165C16.2808 18.8512 16.0309 19.091 15.6231 19.2005V17.3967C16.165 17.6735 16.3696 18.1523 16.3233 18.5165Z" fill="#00B871"/>
<path d="M15.4802 32.2872H14.5427C14.1545 32.2872 13.8396 32.602 13.8396 32.9903C13.8396 33.3786 14.1545 33.6934 14.5427 33.6934H15.4802C15.8685 33.6934 16.1833 33.3786 16.1833 32.9903C16.1833 32.602 15.8685 32.2872 15.4802 32.2872Z" fill="#00B871"/>
<path d="M31.4372 23.0968H28.9248V22.6538C28.9248 20.9775 27.7384 19.5739 26.1634 19.2431V3.88224C26.1634 2.01727 24.6405 0.5 22.7685 0.5H7.25459C5.38259 0.5 3.85962 2.01727 3.85962 3.88224V33.1114C3.85962 34.9799 5.3797 36.5 7.24819 36.5H29.339C30.8837 36.5 32.1404 35.2433 32.1404 33.6986V23.7999C32.1403 23.4116 31.8255 23.0968 31.4372 23.0968ZM27.5186 22.6538V23.0968H23.3823V22.6538C23.3823 21.5078 24.3101 20.5756 25.4505 20.5756C26.5909 20.5756 27.5186 21.5078 27.5186 22.6538ZM19.4836 23.0968C19.0954 23.0968 18.7805 23.4116 18.7805 23.7999V29.4806H5.26587V6.44457H24.7573V19.2391C23.1725 19.5621 21.9761 20.9705 21.9761 22.6538V23.0968H19.4836ZM7.25459 1.90625H22.7685C23.8651 1.90625 24.7573 2.79261 24.7573 3.88224V5.03832H5.26587V3.88224C5.26587 2.79261 6.15799 1.90625 7.25459 1.90625ZM5.26587 33.1114V30.8868H18.7805V33.6986C18.7805 34.2062 18.9162 34.6827 19.1532 35.0938H7.24819C6.15511 35.0938 5.26587 34.2045 5.26587 33.1114ZM30.734 33.6986C30.734 34.4678 30.1082 35.0938 29.3389 35.0938H21.5818C20.8126 35.0938 20.1867 34.4679 20.1867 33.6986V24.5031H21.976V26.5086C21.976 26.8969 22.2908 27.2117 22.6791 27.2117C23.0674 27.2117 23.3822 26.8969 23.3822 26.5086V24.5031H27.5185V26.5086C27.5185 26.8969 27.8333 27.2117 28.2216 27.2117C28.6099 27.2117 28.9248 26.8969 28.9248 26.5086V24.5031H30.734V33.6986H30.734Z" fill="#00B871"/>
</g>
<defs>
<clipPath id="clip0_164_14079">
<rect width="36" height="36" fill="white" transform="translate(0 0.5)"/>
</clipPath>
</defs>
</svg>
