<svg width="36" height="37" viewBox="0 0 36 37" fill="none" xmlns="http://www.w3.org/2000/svg">
<path d="M21.442 12.7626C19.5134 12.7626 18.0003 14.9129 18.0003 14.9129C18.0003 14.9129 16.573 12.7626 14.5577 12.7626C12.5976 12.7626 10.9969 14.3793 10.8921 16.3368C10.8331 17.4426 11.1896 18.2842 11.6919 19.0465C12.6956 20.5694 18.0067 24.0943 18.0067 24.0943C18.0067 24.0943 23.2979 20.5827 24.3082 19.0465C24.8115 18.2808 25.1671 17.4426 25.1078 16.3368C25.0031 14.3793 23.4023 12.7626 21.442 12.7626Z" fill="#2FDF84"/>
<path d="M35.2969 26.7945H34.6371V6.51981C34.6371 4.94003 33.3519 3.65479 31.7721 3.65479H4.22789C2.64811 3.65479 1.36287 4.94003 1.36287 6.51981V26.7946H0.703125C0.314789 26.7946 0 27.1093 0 27.4977V30.1278C0 31.9019 1.4433 33.3453 3.21743 33.3453H32.7825C34.5566 33.3453 36 31.902 36 30.1279V27.4978C36 27.1093 35.6851 26.7945 35.2969 26.7945ZM4.22789 5.06103H31.7721C32.5765 5.06103 33.2309 5.71543 33.2309 6.51974V8.47703H2.76912V6.51981C2.76912 5.71543 3.42352 5.06103 4.22789 5.06103ZM2.76912 9.88328H33.2309V26.7945H23.0894C22.7012 26.7945 22.3863 27.1093 22.3863 27.4976C22.3863 27.9467 22.021 28.312 21.5719 28.312H14.4281C13.979 28.312 13.6137 27.9466 13.6137 27.4976C13.6137 27.1093 13.2989 26.7945 12.9106 26.7945H2.76912V9.88328ZM34.5938 30.1278C34.5938 31.1265 33.7812 31.939 32.7825 31.939H3.21743C2.21871 31.939 1.40625 31.1264 1.40625 30.1277V28.2007H12.3215C12.6163 29.0816 13.4493 29.7182 14.4281 29.7182H21.5718C22.5506 29.7182 23.3836 29.0816 23.6784 28.2007H34.5938V30.1278Z" fill="#00B871"/>
<path d="M17.605 7.38916H18.3949C18.7831 7.38916 19.098 7.07437 19.098 6.68604C19.098 6.2977 18.7831 5.98291 18.3949 5.98291H17.605C17.2166 5.98291 16.9019 6.2977 16.9019 6.68604C16.9019 7.07437 17.2166 7.38916 17.605 7.38916Z" fill="#00B871"/>
<path d="M28.6252 17.9181H29.3646C29.7529 17.9181 30.0678 17.6033 30.0678 17.215C30.0678 16.8266 29.7529 16.5118 29.3646 16.5118H28.6252C28.237 16.5118 27.9221 16.8266 27.9221 17.215C27.9221 17.6033 28.237 17.9181 28.6252 17.9181Z" fill="#00B871"/>
<path d="M26.8497 13.9352C27.0297 13.9352 27.2096 13.8665 27.3468 13.7293L27.8696 13.2065C28.1442 12.9319 28.1442 12.4867 27.8696 12.2121C27.595 11.9376 27.1498 11.9376 26.8752 12.2122L26.3524 12.735C26.0778 13.0096 26.0778 13.4548 26.3524 13.7293C26.4898 13.8665 26.6697 13.9352 26.8497 13.9352Z" fill="#00B871"/>
<path d="M26.8753 22.2177C27.0126 22.355 27.1925 22.4236 27.3724 22.4236C27.5524 22.4236 27.7323 22.3549 27.8696 22.2177C28.1442 21.9431 28.1442 21.4979 27.8696 21.2233L27.3468 20.7006C27.0723 20.426 26.6272 20.426 26.3524 20.7006C26.0778 20.9751 26.0778 21.4203 26.3524 21.6949L26.8753 22.2177Z" fill="#00B871"/>
<path d="M7.37483 16.5118H6.6355C6.24716 16.5118 5.93237 16.8266 5.93237 17.215C5.93237 17.6033 6.24716 17.9181 6.6355 17.9181H7.37483C7.76317 17.9181 8.07796 17.6033 8.07796 17.215C8.07796 16.8266 7.76317 16.5118 7.37483 16.5118Z" fill="#00B871"/>
<path d="M8.65351 20.7006L8.13073 21.2233C7.85616 21.4979 7.85616 21.9431 8.13073 22.2178C8.26805 22.3551 8.44798 22.4237 8.62791 22.4237C8.80784 22.4237 8.98784 22.3551 9.12509 22.2178L9.64787 21.695C9.92244 21.4204 9.92244 20.9752 9.64787 20.7006C9.37337 20.426 8.92815 20.426 8.65351 20.7006Z" fill="#00B871"/>
<path d="M9.12516 12.2121C8.85059 11.9375 8.40537 11.9375 8.13073 12.2121C7.85616 12.4867 7.85616 12.9319 8.13073 13.2065L8.65351 13.7293C8.79083 13.8666 8.97076 13.9352 9.15069 13.9352C9.33062 13.9352 9.51062 13.8666 9.64787 13.7293C9.92244 13.4547 9.92244 13.0095 9.64787 12.7349L9.12516 12.2121Z" fill="#00B871"/>
</svg>
