<svg width="36" height="37" viewBox="0 0 36 37" fill="none" xmlns="http://www.w3.org/2000/svg">
<g clip-path="url(#clip0_164_14048)">
<path d="M18.4253 6.61591H17.5901C17.2018 6.61591 16.887 6.93069 16.887 7.31903C16.887 7.70737 17.2018 8.02216 17.5901 8.02216H18.4253C18.8136 8.02216 19.1284 7.70737 19.1284 7.31903C19.1284 6.93069 18.8136 6.61591 18.4253 6.61591Z" fill="#00B871"/>
<path d="M22.2883 6.61591H21.4531C21.0648 6.61591 20.75 6.93069 20.75 7.31903C20.75 7.70737 21.0648 8.02216 21.4531 8.02216H22.2883C22.6766 8.02216 22.9914 7.70737 22.9914 7.31903C22.9914 6.93069 22.6766 6.61591 22.2883 6.61591Z" fill="#00B871"/>
<path d="M26.1511 6.61591H25.3159C24.9276 6.61591 24.6128 6.93069 24.6128 7.31903C24.6128 7.70737 24.9276 8.02216 25.3159 8.02216H26.1511C26.5394 8.02216 26.8542 7.70737 26.8542 7.31903C26.8542 6.93069 26.5394 6.61591 26.1511 6.61591Z" fill="#00B871"/>
<path d="M10.5396 6.61591H4.51196C4.12363 6.61591 3.80884 6.93069 3.80884 7.31903C3.80884 7.70737 4.12363 8.02216 4.51196 8.02216H10.5396C10.928 8.02216 11.2428 7.70737 11.2428 7.31903C11.2428 6.93069 10.928 6.61591 10.5396 6.61591Z" fill="#00B871"/>
<path d="M10.1132 14.1487C8.49273 14.1487 7.17437 15.4706 7.17437 17.0956V17.3171H5.29956C4.91122 17.3171 4.59644 17.6319 4.59644 18.0202V26.0059C4.59644 27.327 5.67123 28.4017 6.99226 28.4017H13.2502C14.5713 28.4017 15.646 27.3269 15.646 26.0059V18.0202C15.646 17.6319 15.3313 17.3171 14.9429 17.3171H13.052V17.0956C13.0521 15.4707 11.7337 14.1487 10.1132 14.1487ZM8.58069 17.0956C8.58069 16.2461 9.26821 15.5549 10.1133 15.5549C10.9584 15.5549 11.6458 16.2461 11.6458 17.0956V17.3171H8.58069V17.0956ZM14.2399 18.7234V26.0059C14.2399 26.5516 13.7959 26.9955 13.2503 26.9955H6.99226C6.44657 26.9955 6.00269 26.5515 6.00269 26.0059V18.7234H7.17444V20.2055C7.17444 20.5938 7.48923 20.9086 7.87757 20.9086C8.2659 20.9086 8.58069 20.5938 8.58069 20.2055V18.7234H11.6458V20.2055C11.6458 20.5938 11.9606 20.9086 12.3489 20.9086C12.7373 20.9086 13.0521 20.5938 13.0521 20.2055V18.7234H14.2399Z" fill="#00B871"/>
<path d="M26.2898 31.4614H2.36348C1.83565 31.4614 1.40625 31.0342 1.40625 30.509V11.305H28.4799V18.001H29.8861V5.69177C29.8861 4.39113 28.8259 3.33307 27.5226 3.33307H2.36348C1.06024 3.333 0 4.39113 0 5.69177V30.509C0 31.8096 1.06024 32.8677 2.36348 32.8677H28.5293C27.8241 32.5251 27.027 32.0626 26.2898 31.4614ZM1.40625 5.69177C1.40625 5.16654 1.83565 4.73932 2.36348 4.73932H27.5226C28.0505 4.73932 28.4799 5.16661 28.4799 5.69177V9.89878H1.40625V5.69177Z" fill="#00B871"/>
<path d="M34.174 19.7909C32.4239 19.7909 30.9144 18.7713 30.2121 17.2978H28.1538C27.4515 18.7713 25.942 19.7909 24.1919 19.7909C23.5402 19.7909 22.9219 19.6494 22.366 19.3959V26.5998C22.366 31.8688 29.1829 33.6669 29.1829 33.6669C29.1829 33.6669 35.9999 31.8688 35.9999 26.5998V19.3959C35.444 19.6494 34.8256 19.7909 34.174 19.7909Z" fill="#2FDF84"/>
<path d="M28.9732 27.5482C28.788 27.5482 28.6097 27.4751 28.4777 27.3439L27.2994 26.1732C27.0239 25.8995 27.0224 25.4544 27.2961 25.1789C27.5698 24.9034 28.015 24.9019 28.2905 25.1756L28.9279 25.8089L30.7927 23.6001C31.0432 23.3033 31.4868 23.2658 31.7836 23.5164C32.0803 23.7669 32.1177 24.2105 31.8672 24.5073L29.5105 27.2987C29.3838 27.4488 29.2001 27.539 29.004 27.5476C28.9938 27.548 28.9835 27.5482 28.9732 27.5482Z" fill="#00B871"/>
</g>
<defs>
<clipPath id="clip0_164_14048">
<rect width="36" height="36" fill="white" transform="translate(0 0.5)"/>
</clipPath>
</defs>
</svg>
