<svg width="117" height="25" viewBox="0 0 117 25" fill="none" xmlns="http://www.w3.org/2000/svg">
<path fill-rule="evenodd" clip-rule="evenodd" d="M15.2126 6.08878C13.1534 5.94109 11.4065 7.20573 10.4329 7.20573C9.44383 7.20573 7.9192 6.12062 6.30258 6.14892C4.18049 6.18076 2.22325 7.34811 1.12942 9.19466C-1.07555 12.9116 0.566561 18.4177 2.71415 21.4316C3.76427 22.9067 5.01658 24.5658 6.66234 24.5056C8.24708 24.4446 8.84545 23.5089 10.7599 23.5089C12.6734 23.5089 13.2135 24.5056 14.8884 24.4738C16.5925 24.4446 17.6735 22.9721 18.7155 21.4891C19.9222 19.7796 20.4186 18.125 20.4477 18.0347C20.4095 18.0224 17.1243 16.7958 17.0916 13.1212C17.0624 10.0498 19.6745 8.57207 19.7938 8.50044C18.3102 6.38062 16.0196 6.14715 15.2126 6.08878ZM97.5088 18.086V18.4115C97.5088 21.6191 95.0925 24.4888 90.2436 24.4888C85.4083 24.4888 82.534 21.5412 82.534 16.3898V14.2382C82.534 9.13983 85.422 6.10028 90.2564 6.10028C94.7956 6.10028 97.5088 8.87895 97.5088 12.3474V12.5296H93.8685C93.8685 10.7697 92.7136 9.20439 90.2828 9.20439C87.6907 9.20439 86.3874 10.8864 86.3874 14.2382V16.3898C86.3874 19.7805 87.678 21.3591 90.3092 21.3591C92.9286 21.3591 93.8685 19.9237 93.8685 18.086H97.5088ZM31.3087 19.1031H31.3624L34.6266 6.3877H38.481L41.7579 19.1031H41.8116L44.8481 6.3877H48.9038L43.8135 24.1899H39.9582L36.5875 12.0211H36.5201L33.1484 24.1899H29.3214L24.2174 6.3877H28.274L31.3087 19.1031ZM105.352 13.5342H112.846V6.3877H116.661V24.1899H112.846V16.5994H105.352V24.1899H101.552V6.3877H105.352V13.5342ZM80.0758 6.3877V9.46528H74.6103V24.1899H70.8224V9.46528H65.3696V6.3877H80.0758ZM59.5398 6.3877L65.4361 24.189H61.3659L60.0589 19.7027H54.26L52.9321 24.189H49.1315L55.0415 6.3877H59.5398ZM59.2638 16.9647L57.2036 9.89596H57.1636L55.0715 16.9647H59.2638ZM13.8583 4.19359C12.9785 5.17347 11.5932 5.91898 10.2335 5.81728C10.0404 4.42353 10.7508 2.96964 11.5595 2.06051C12.4621 1.03642 13.984 0.269679 15.2427 0.221924C15.4048 1.64221 14.8155 3.07311 13.9412 4.0972L13.9002 4.14584L13.8583 4.19359Z" fill="#D2D6DC"/>
</svg>
