<svg width="117" height="25" viewBox="0 0 117 25" fill="none" xmlns="http://www.w3.org/2000/svg">
<path fill-rule="evenodd" clip-rule="evenodd" d="M82.2614 15.9698C80.5674 15.5453 80.5674 15.5276 80.5674 14.6255C80.5674 14.018 80.6293 13.7279 82.0246 13.7279C82.9827 13.7279 84.3926 13.8871 85.2997 14.041C85.4236 14.0587 85.5511 14.0321 85.6531 13.9525C85.7551 13.8818 85.8207 13.7668 85.8353 13.643L86.0939 11.6222C86.1121 11.3923 85.9664 11.1801 85.7296 11.127C84.6731 10.8918 83.2159 10.7379 82.0137 10.7379C77.8059 10.7379 76.9498 12.2767 76.9498 14.5884C76.9498 17.1292 77.4325 17.9843 80.6512 18.7449C82.7714 19.2401 82.7714 19.6071 82.7714 20.2174C82.7714 21.0186 82.6986 21.2963 81.3142 21.2963C80.1958 21.2963 78.9025 21.1282 77.7658 20.8329C77.6383 20.8028 77.5108 20.8223 77.4015 20.8859C77.2922 20.9549 77.2139 21.0628 77.1902 21.1866L76.8423 23.1154C76.8004 23.3365 76.9334 23.5532 77.152 23.6221C78.3943 24.0113 80.1757 24.2766 81.4836 24.2766C85.5529 24.2766 86.3835 22.614 86.3835 20.1378C86.3835 17.3962 85.8844 16.8833 82.2559 15.9512L82.2614 15.9689V15.9698ZM71.7092 15.9698C70.0152 15.5453 70.0152 15.5276 70.0152 14.6255C70.0152 14.018 70.0771 13.7279 71.4724 13.7279C72.4287 13.7279 73.8404 13.8871 74.7476 14.041C74.8714 14.0587 74.9989 14.0321 75.1009 13.9525C75.2029 13.8818 75.2685 13.7668 75.2831 13.643L75.5417 11.6222C75.5709 11.3923 75.4179 11.1801 75.1865 11.127C74.1483 10.8918 72.691 10.7379 71.4888 10.7379C67.292 10.7379 66.4249 12.2767 66.4249 14.5884C66.4249 17.1292 66.9168 17.9843 70.1336 18.7449C72.2539 19.2401 72.2539 19.6071 72.2539 20.2174C72.2539 21.0186 72.181 21.2963 70.7966 21.2963C69.6764 21.2963 68.3831 21.1282 67.2446 20.8329C67.1171 20.8028 66.9896 20.8223 66.8803 20.8859C66.771 20.9549 66.6927 21.0628 66.669 21.1866L66.3047 23.1057C66.2683 23.3268 66.3958 23.5443 66.6199 23.6133C67.8585 24.0024 69.64 24.2677 70.9496 24.2677C75.0117 24.2677 75.8496 22.6051 75.8496 20.1289C75.8496 17.3874 75.3432 16.8745 71.7147 15.9423L71.7092 15.96V15.9698ZM34.3586 6.67865C34.2985 6.49117 34.1218 6.36382 33.9178 6.36382H29.6035C29.4031 6.36382 29.2209 6.49028 29.1608 6.676L23.7172 23.4249C23.6753 23.5576 23.6989 23.7079 23.7864 23.8229C23.8738 23.9379 24.0123 24.006 24.1598 24.006H27.1289C27.3347 24.006 27.5151 23.8733 27.5734 23.6876L31.323 11.3596C31.323 11.3596 31.4232 11.0501 31.7602 11.0501C32.1063 11.0501 32.1973 11.3684 32.1973 11.3684L33.9369 17.2141H31.6053C31.405 17.2141 31.2228 17.3494 31.1682 17.5413L30.4942 19.8583C30.4578 19.991 30.4942 20.1413 30.5671 20.2474C30.6581 20.3597 30.8039 20.4243 30.9496 20.4243H34.9296L35.977 23.6902C36.0353 23.876 36.2138 24.0033 36.4142 24.0033H39.3833C39.529 24.0033 39.6711 23.9326 39.7585 23.8176C39.8496 23.7009 39.8751 23.5523 39.8314 23.4161L34.3823 6.64858L34.3641 6.67688L34.3586 6.67865ZM91.0995 11.0067H88.3672C88.1122 11.0067 87.9063 11.2075 87.9063 11.4551V23.5885C87.9063 23.8362 88.114 24.0413 88.369 24.0413H91.1013C91.3563 24.0413 91.5631 23.8406 91.5631 23.5903V11.4595C91.5631 11.2119 91.3627 11.0147 91.1077 11.0147L91.0986 11.0076L91.0995 11.0067ZM52.3554 6.03661H49.6231C49.3681 6.03661 49.1622 6.23736 49.1622 6.48498V23.5885C49.1622 23.8362 49.3699 24.0413 49.6249 24.0413H52.3572C52.6122 24.0413 52.8181 23.8406 52.8181 23.5903V6.4894C52.8181 6.24178 52.6177 6.04456 52.3627 6.04456L52.3554 6.03749V6.03661ZM113.778 10.7458C112.334 10.7458 110.362 11.2305 108.696 11.991L108.495 11.3366C108.441 11.142 108.258 11.0138 108.053 11.0138H106.032C105.777 11.0138 105.567 11.2145 105.567 11.4622V23.5956C105.567 23.8432 105.767 24.0466 106.022 24.0466H108.755C109.01 24.0466 109.219 23.8468 109.219 23.5956V15.1942C110.203 14.7078 111.587 14.2037 112.41 14.2037C113.025 14.2037 113.253 14.4283 113.253 15.0261V23.5868C113.253 23.8379 113.463 24.0378 113.718 24.0378H116.45C116.705 24.0378 116.911 23.8379 116.911 23.5868V14.6786C116.911 12.0741 115.854 10.752 113.776 10.752H113.774L113.778 10.7458ZM10.5056 17.9596C10.4327 17.8888 10.3289 17.8137 10.1504 17.8137C9.92266 17.8137 9.78969 17.9658 9.73868 18.0401C8.46361 19.9326 7.80785 21.719 7.71678 23.5143C7.71404 23.6469 7.76505 23.7796 7.85795 23.8768C7.94902 23.983 8.08564 24.036 8.22225 24.036H11.2496C11.5138 24.036 11.7324 23.8415 11.7506 23.5938C11.8234 22.7272 12.0967 21.8605 12.6067 20.9584C12.7797 20.6401 12.6431 20.3482 12.5429 20.2218C12.042 19.585 11.4291 18.9129 10.5183 17.9879L10.5147 17.9702L10.5056 17.9596ZM61.2144 19.2507V20.8134C60.7682 21.061 59.9485 21.3971 58.9557 21.3971C58.1087 21.3971 57.8446 21.1495 57.8446 20.3182C57.8446 19.5222 58.0085 19.2711 59.0104 19.2711H61.2144V19.2516V19.2507ZM100.031 19.2507V20.8134C99.576 21.061 98.7563 21.3971 97.7727 21.3971C96.9257 21.3971 96.6616 21.1495 96.6616 20.3182C96.6616 19.5222 96.8255 19.2711 97.8273 19.2711H100.031V19.2516V19.2507ZM47.307 21.4484C47.2888 21.321 47.2159 21.2096 47.1066 21.1389C46.9973 21.0681 46.868 21.0469 46.7405 21.077C46.2487 21.1937 45.7933 21.2574 45.429 21.2574C44.755 21.2574 44.4454 20.9744 44.4454 20.3376V13.9083H47.0957C47.3507 13.9083 47.5584 13.7049 47.5584 13.4573V11.4498C47.5584 11.2022 47.3489 10.9988 47.0939 10.9988H44.4526V7.91322C44.4526 7.78057 44.3907 7.65941 44.2887 7.57274C44.1885 7.48696 44.0519 7.44893 43.9244 7.46662L41.1921 7.83805C40.9626 7.86724 40.7914 8.05649 40.7914 8.28023V11.0041H39.3004C39.0454 11.0041 38.8378 11.2048 38.8378 11.4524V13.4688C38.8378 13.7164 39.0563 13.9216 39.3114 13.9216H40.7977V20.7577C40.7977 23.1074 42.0673 24.2951 44.5738 24.2951C45.2842 24.2951 46.4973 24.136 47.2879 23.8707C47.4973 23.7999 47.6267 23.5938 47.5921 23.3754L47.2961 21.4563L47.3052 21.4431L47.307 21.4484ZM59.3829 10.752C57.9985 10.752 56.3154 10.9643 55.0932 11.2915C54.8564 11.3534 54.7106 11.5701 54.7471 11.7956L55.0622 13.7235C55.0804 13.8411 55.1533 13.9472 55.2535 14.018C55.3555 14.0887 55.483 14.1064 55.6068 14.0887C56.7416 13.8765 57.9147 13.7527 58.9075 13.7527C60.8747 13.7527 61.1917 14.1595 61.1917 15.4506V16.5826H58.2772C55.483 16.5826 54.288 17.6969 54.288 20.3323C54.288 22.8439 55.5995 24.2766 57.8765 24.2766C59.2007 24.2766 60.5232 23.9228 61.6343 23.2684L61.7527 23.6805C61.8073 23.8751 61.9895 24.0077 62.199 24.0077H64.4176C64.6726 24.0077 64.8785 23.8043 64.8785 23.5567V15.4913C64.8785 12.0246 63.3939 10.7335 59.3956 10.7335L59.3792 10.7423L59.3829 10.752ZM98.1935 10.752C96.8091 10.752 95.1333 10.9643 93.9129 11.2915C93.6852 11.3534 93.5394 11.5701 93.5804 11.7956L93.8992 13.7235C93.9174 13.8411 93.9903 13.9472 94.0905 14.018C94.1943 14.0887 94.3218 14.1064 94.4457 14.0887C95.575 13.8765 96.7408 13.7527 97.7426 13.7527C99.7099 13.7527 100.02 14.1595 100.02 15.4506V16.5826H97.1051C94.2999 16.5826 93.105 17.6969 93.105 20.3323C93.105 22.8439 94.4138 24.2766 96.6934 24.2766C98.0168 24.2766 99.3347 23.9228 100.446 23.2684L100.564 23.6805C100.619 23.8751 100.801 24.0077 101.01 24.0077H103.215C103.47 24.0077 103.679 23.8043 103.679 23.5567V15.4913C103.679 12.0246 102.194 10.7335 98.1962 10.7335L98.2008 10.7423L98.1935 10.752ZM22.7882 6.11797C22.6971 6.05164 22.5924 6.01803 22.4849 6.01803C22.412 6.01803 22.3574 6.02865 22.3027 6.04987C21.2098 6.45137 20.1169 6.75736 19.1151 6.98199C18.9147 7.03505 18.7362 7.17655 18.6779 7.35342C17.9493 9.29902 16.0731 11.1562 14.124 13.0841C14.0512 13.1548 13.9419 13.261 13.7597 13.261C13.5776 13.261 13.4683 13.1725 13.3954 13.0965C11.4282 11.1597 9.57019 9.32024 8.84158 7.37465C8.76871 7.19777 8.60478 7.05627 8.40441 7.00321C7.40256 6.77328 6.29142 6.46375 5.21671 6.06579C5.16207 6.0481 5.09285 6.03926 5.03456 6.03926C4.92527 6.03926 4.81962 6.07463 4.73036 6.13919C4.59193 6.23647 4.52089 6.4045 4.53728 6.56368C4.70122 8.17853 5.36608 9.75623 6.55008 11.41C7.67033 12.9665 9.11845 14.408 10.5301 15.8C13.1167 18.3646 15.5667 20.7878 15.7835 23.6C15.8017 23.8512 16.0203 24.0475 16.2789 24.0475H19.3209C19.4575 24.0475 19.5905 23.9945 19.6852 23.8972C19.7799 23.7999 19.8309 23.6708 19.8218 23.5381C19.7253 21.6606 18.9967 19.7796 17.5941 17.7871C17.3026 17.3715 16.993 16.9647 16.6623 16.5667C16.5294 16.4075 16.5858 16.2041 16.6879 16.1051L16.9975 15.8008C18.4065 14.4124 19.8573 12.9709 20.9776 11.4144C22.1616 9.76508 22.8173 8.19533 22.9858 6.58137C23.004 6.41777 22.9275 6.24531 22.7927 6.14538L22.8018 6.13212L22.7882 6.11797ZM13.7716 7.56832C14.7251 7.56832 15.2789 7.50907 15.472 7.50907C15.6906 7.50907 15.9274 7.68594 15.9274 7.95125C15.9274 8.022 15.9091 8.07506 15.8909 8.12812C15.7634 8.45357 15.1805 9.63507 14.1058 10.6486C13.9783 10.7618 13.8508 10.783 13.7597 10.783C13.6687 10.783 13.5229 10.7618 13.4009 10.6486C12.3262 9.63507 11.7506 8.45534 11.6249 8.12458C11.6067 8.07152 11.5885 8.01846 11.5885 7.93887C11.5885 7.6824 11.8125 7.48784 12.0475 7.48784C12.2424 7.48784 12.7943 7.5409 13.7488 7.5409H13.7524L13.7707 7.55859L13.7716 7.56832ZM91.0977 6.04103H88.3727C88.1176 6.04103 87.91 6.23559 87.91 6.48321V8.81792C87.91 9.06555 88.1176 9.26718 88.3727 9.26718H91.105C91.36 9.26718 91.5667 9.07262 91.5667 8.825V6.47171C91.5667 6.22409 91.36 6.02511 91.105 6.02511L91.0977 6.04633V6.04103ZM27.0779 0.471314C26.9568 0.312129 26.7682 0.223693 26.5679 0.223693C26.465 0.223693 26.3629 0.244917 26.2764 0.294442C22.5423 2.27541 18.2189 3.32427 13.767 3.32604C9.317 3.32604 4.99267 2.27541 1.26216 0.292673C1.17108 0.239611 1.07089 0.221924 0.97071 0.221924C0.770341 0.221924 0.579079 0.31036 0.460679 0.469545C0.28399 0.681792 0.278525 1.07091 0.579079 1.30085C2.44616 2.64508 4.50632 3.70631 6.69945 4.43149C8.97637 5.17435 11.3517 5.56347 13.767 5.56347C16.1842 5.56347 18.5613 5.17435 20.8346 4.43149C23.0295 3.70631 25.0897 2.64508 26.9604 1.30085C27.261 1.07091 27.2519 0.681792 27.0788 0.451858V0.471314H27.0779Z" fill="#00B871"/>
</svg>
