<svg width="125" height="38" viewBox="0 0 125 38" fill="none" xmlns="http://www.w3.org/2000/svg">
<g filter="url(#filter0_d_140_8448)">
<path fill-rule="evenodd" clip-rule="evenodd" d="M109.843 18.2057C109.843 15.9019 108.873 13.2356 105.856 9.51859L98.5785 0.568848H88.4471L94.215 6.84782C95.1868 7.8949 96.4245 8.83586 96.4245 8.83586C95.0219 8.05143 93.246 7.73749 91.8434 7.73749C88.5027 7.73749 85.1073 8.41844 82.089 10.0404C78.8558 11.7666 76.6973 14.6452 76.6973 18.4666C76.6973 21.3965 78.047 23.6472 79.7711 25.3734C83.651 29.1435 90.7122 29.5087 93.2997 29.5087C97.1267 29.5087 103.11 28.6703 106.504 25.6883C108.5 23.9089 109.847 21.4495 109.847 18.2066L109.843 18.2057ZM121 8.31409H112.215V28.8286H121V8.31409ZM48.7786 28.8286L29.3746 0.568848H18.4882L21.4965 4.02228L4.42139 28.8286H14.2304L17.1567 24.1716H35.658L38.6454 28.8269H48.7786V28.8286ZM74.4868 20.2459V8.31409H65.973V17.4725C65.973 20.0903 65.8637 20.8207 65.7025 21.5008C65.1105 23.3845 63.0612 24.2211 60.9574 24.2211C58.0475 24.2211 56.6995 23.1218 56.1622 21.3947C55.9982 20.8199 55.9463 20.1937 55.8926 19.5641C55.8379 18.8849 55.8926 18.1517 55.8926 17.3664V8.31409H47.2694V20.2972C47.2694 22.968 48.1847 24.9551 49.6939 26.317C52.2805 28.7756 56.6467 29.5096 60.6896 29.5096C65.595 29.5096 69.3692 28.8286 72.0633 26.264C73.4659 24.9551 74.4896 23.2289 74.4896 20.2459H74.4868ZM101.436 18.4666C101.436 20.6111 99.9811 22.2339 98.1486 23.1236C96.6404 23.9089 94.8607 24.1176 93.297 24.1176C91.7341 24.1176 89.9016 23.8055 88.3925 23.0714C86.56 22.1827 85.1592 20.4555 85.1592 18.57C85.1592 16.3211 86.9371 14.5418 89.0391 13.6512C90.3324 13.0746 91.8962 12.8659 93.1348 12.8659C94.3207 12.8659 96.0466 13.0224 97.3927 13.5469C99.819 14.5418 101.436 16.4246 101.436 18.4666ZM32.2381 18.6567H20.5119L26.3554 9.29485L32.239 18.6567H32.2381Z" fill="#D2D6DC"/>
</g>
<defs>
<filter id="filter0_d_140_8448" x="0.421387" y="0.568848" width="124.579" height="36.9408" filterUnits="userSpaceOnUse" color-interpolation-filters="sRGB">
<feFlood flood-opacity="0" result="BackgroundImageFix"/>
<feColorMatrix in="SourceAlpha" type="matrix" values="0 0 0 0 0 0 0 0 0 0 0 0 0 0 0 0 0 0 127 0" result="hardAlpha"/>
<feOffset dy="4"/>
<feGaussianBlur stdDeviation="2"/>
<feComposite in2="hardAlpha" operator="out"/>
<feColorMatrix type="matrix" values="0 0 0 0 0 0 0 0 0 0 0 0 0 0 0 0 0 0 0.25 0"/>
<feBlend mode="normal" in2="BackgroundImageFix" result="effect1_dropShadow_140_8448"/>
<feBlend mode="normal" in="SourceGraphic" in2="effect1_dropShadow_140_8448" result="shape"/>
</filter>
</defs>
</svg>
