<svg width="117" height="30" viewBox="0 0 117 30" fill="none" xmlns="http://www.w3.org/2000/svg">
<path fill-rule="evenodd" clip-rule="evenodd" d="M14.9321 23.7692C14.7617 23.7692 14.677 23.8523 14.677 23.8523C14.677 23.8523 12.5431 25.5149 8.7024 25.5149C4.86351 25.514 2.73231 23.8514 2.73231 23.8514C2.73231 23.8514 2.56199 23.7692 2.47729 23.7692C2.30607 23.7692 2.13484 23.8523 2.13484 24.1008V24.1831C2.47638 25.9235 2.73231 27.166 2.73231 27.3314C2.98732 28.5748 5.5484 29.5688 8.61952 29.5688C11.6915 29.5688 14.2517 28.5748 14.5076 27.3314C14.5076 27.166 14.7627 25.9235 15.0996 24.1831V24.1008C15.1816 23.9346 15.0996 23.7692 14.9266 23.7692H14.9321ZM32.2531 19.71C33.3624 19.1298 33.7895 18.3012 33.7895 17.0569V15.3174C33.7895 12.8323 32.2531 11.5907 29.0107 11.5907H22.526C22.271 11.5907 22.0998 11.7569 22.0998 12.0063V28.2432C22.0998 28.4926 22.2701 28.6588 22.526 28.6588H29.5226C32.5946 28.6588 34.3861 27.1669 34.3861 24.5996V22.8574C34.3861 21.3673 33.6183 20.2088 32.2531 19.71ZM38.909 16.0638H36.2677C36.0127 16.0638 35.8397 16.23 35.8397 16.4794V28.2432C35.8397 28.4908 36.0127 28.6588 36.2677 28.6588H38.9181C39.1731 28.6588 39.3461 28.4908 39.3461 28.2432V16.4785C39.3461 16.2309 39.1731 16.0629 38.9181 16.0629L38.909 16.0638ZM102.481 15.8161C98.9013 15.8161 97.1071 17.5557 97.1071 20.7862V24.0177C97.1071 27.3323 98.9013 28.9065 102.654 28.9065C104.193 28.9065 105.814 28.6588 107.18 28.1601C107.351 28.0778 107.521 27.9124 107.435 27.663L107.009 25.8413C107.009 25.7572 106.924 25.5919 106.839 25.5919C106.753 25.5087 106.584 25.5087 106.497 25.5087C105.304 25.8404 104.109 26.0066 103 26.0066C101.037 26.0066 100.696 25.4265 100.696 24.1008V23.6852H107.266C107.521 23.6852 107.694 23.5207 107.694 23.2722V20.9525C107.608 17.4725 105.987 15.8144 102.489 15.8144L102.481 15.8161ZM55.6398 25.9244C54.9567 25.9244 54.4467 25.9244 53.9366 25.8404V19.4553C54.7053 19.1192 55.729 18.792 56.4959 18.792C57.5205 18.792 57.9477 19.2077 57.9477 20.1186V23.8417C57.9477 25.2505 57.6061 25.9138 55.6434 25.9138L55.6398 25.9244ZM116.306 26.172C116.306 26.0889 116.224 25.9244 116.139 25.8404C116.054 25.7519 115.884 25.7519 115.798 25.7519C115.286 25.8315 114.86 25.92 114.518 25.92C113.835 25.92 113.58 25.6723 113.58 25.0091V18.792H116.139C116.394 18.792 116.564 18.624 116.564 18.3764V16.475C116.564 16.2274 116.394 16.0593 116.139 16.0593H113.579V13.079C113.579 12.911 113.492 12.827 113.406 12.7447C113.321 12.6616 113.151 12.6616 113.065 12.6616L110.421 12.9977C110.166 12.9977 109.993 13.2453 109.993 13.4107V16.062H108.545C108.29 16.062 108.116 16.2282 108.116 16.4776V18.3817C108.116 18.6293 108.29 18.7973 108.545 18.7973H109.993V25.423C109.993 27.6604 111.189 28.8189 113.663 28.8189C114.346 28.8189 115.539 28.6553 116.308 28.4033C116.479 28.3237 116.65 28.1556 116.563 27.908L116.308 26.1694L116.306 26.172ZM48.8163 26.172C48.8163 26.0889 48.7316 25.9244 48.646 25.8404C48.5613 25.7519 48.391 25.7519 48.3054 25.7519C47.8773 25.8315 47.3673 25.92 47.0257 25.92C46.3427 25.92 46.0876 25.6723 46.0876 25.0091V18.792H48.6469C48.9019 18.792 49.075 18.624 49.075 18.3764V16.475C49.075 16.2274 48.9019 16.0593 48.6469 16.0593H46.0849V13.079C46.0849 12.911 45.9993 12.827 45.9137 12.7447C45.8281 12.6616 45.6587 12.6616 45.5721 12.6616L42.9291 12.9977C42.6741 12.9977 42.5038 13.2453 42.5038 13.4107V16.062H41.0484C40.7933 16.062 40.6203 16.2282 40.6203 16.4776V18.3817C40.6203 18.6293 40.7915 18.7973 41.0484 18.7973H42.4983V25.423C42.4983 27.6604 43.6914 28.8189 46.166 28.8189C46.849 28.8189 48.0422 28.6553 48.8072 28.4033C48.9802 28.3237 49.1487 28.1556 49.0622 27.908L48.8072 26.1694L48.8163 26.172ZM84.227 26.0066C84.227 25.9235 84.1414 25.7572 84.0567 25.675C83.972 25.5919 83.8017 25.5919 83.7161 25.5919C82.9483 25.7572 82.1805 25.8395 81.4118 25.8395C79.7059 25.8395 79.2788 25.4265 79.2788 24.0177V20.6218C79.2788 19.2121 79.7906 18.7982 81.4118 18.7982C81.8399 18.7982 82.778 18.8813 83.7161 19.0458C83.8008 19.0458 83.9711 19.0458 84.0567 18.9636C84.1405 18.8813 84.2261 18.7982 84.2261 18.6319L84.5695 16.6439C84.5695 16.3963 84.4829 16.23 84.227 16.1469C83.2042 15.8152 82.0093 15.7312 81.3271 15.7312C77.3161 15.7312 75.694 17.1409 75.694 20.6218V23.9346C75.694 27.4145 77.3152 28.8233 81.3244 28.8233C82.2625 28.8233 83.3718 28.658 84.2252 28.4077C84.4802 28.3263 84.5667 28.1601 84.5667 27.9124L84.2243 26.0066H84.227ZM25.6919 25.675H28.8504C30.2166 25.675 30.7266 25.3434 30.7266 24.2662V23.0193C30.7266 21.9403 30.3022 21.5247 29.1054 21.5247H27.9943C27.7393 21.5247 27.5662 21.3567 27.5662 21.109V19.0494C27.5662 18.8 27.7393 18.6337 27.9943 18.6337H28.5918C29.7011 18.6337 30.1273 18.2198 30.1273 17.2258V15.733C30.1273 15.1529 29.9616 14.5727 28.5972 14.5727H25.6837V25.675H25.6919ZM73.6439 16.0638H71.0026C70.7476 16.0638 70.5746 16.23 70.5746 16.4794V24.5978C69.6365 25.0949 68.2703 25.5919 67.5053 25.5919C66.9069 25.5919 66.6492 25.3442 66.6492 24.7632V16.4847C66.6492 16.2371 66.4761 16.0691 66.2211 16.0691H63.5717C63.3167 16.0691 63.1454 16.2371 63.1454 16.4847V25.1011C63.1454 27.5861 64.1673 28.9127 66.2147 28.9127C67.5809 28.9127 69.5427 28.4148 71.1638 27.6692L71.3342 28.3325C71.4225 28.4988 71.5937 28.665 71.7622 28.665H73.7267C73.9818 28.665 74.153 28.497 74.153 28.2494V16.4785C74.0674 16.3105 73.898 16.0629 73.6411 16.0629L73.6439 16.0638ZM8.70604 10.0996C3.92541 10.0996 0 11.3404 0 12.9145C0 13.3302 1.0237 19.2112 1.45086 21.5318C1.62117 22.608 4.43818 24.1 8.70331 24.1C12.9693 24.1 15.6998 22.6142 15.9558 21.5353C16.3747 19.2183 17.4039 13.3373 17.4039 12.9216C17.3128 11.3475 13.4785 10.1058 8.69693 10.1058L8.70604 10.0996ZM8.70604 22.195C7.17139 22.195 5.97647 21.0348 5.97647 19.5437C5.97647 18.0491 7.16957 16.8906 8.70513 16.8906C10.2407 16.8906 11.4356 18.0491 11.4356 19.5437C11.4356 20.9499 10.2407 22.188 8.70513 22.188L8.70604 22.195ZM96.5934 27.9116L93.0942 22.2782L96.5096 16.7332C96.5943 16.5652 96.5943 16.4042 96.5096 16.3176C96.4231 16.1557 96.2528 16.0699 96.0816 16.0699H93.1808C93.0095 16.0699 92.8383 16.1557 92.7527 16.3176L89.5104 21.7909V11.6738C89.5104 11.4244 89.3373 11.2581 89.0823 11.2581H86.4365C86.1815 11.2581 86.0085 11.4244 86.0085 11.6738V28.1583C86.0085 28.4059 86.1815 28.5739 86.4365 28.5739H89.0814C89.3364 28.5739 89.5095 28.4059 89.5095 28.1583V22.7725L92.9194 28.4059C93.005 28.5739 93.1744 28.6562 93.2609 28.6562H96.1608C96.4158 28.6562 96.5889 28.4899 96.5889 28.2405C96.6727 28.076 96.6727 27.9929 96.5889 27.9098L96.5934 27.9116ZM100.604 20.872V20.4564C100.604 19.2183 101.2 18.723 102.48 18.723C103.931 18.723 104.187 19.3863 104.187 20.4652V20.8809H100.604V20.872ZM8.70695 18.1385C9.45925 18.1385 10.0731 18.7381 10.0731 19.465C10.0731 20.199 9.45925 20.7916 8.70695 20.7916C7.95466 20.7916 7.3408 20.199 7.3408 19.465C7.3408 18.7381 7.95284 18.1385 8.70695 18.1385ZM57.4276 15.8214C56.148 15.8214 54.7828 16.1557 53.9303 16.4847V11.7622C53.9303 11.5146 53.759 11.3466 53.5022 11.3466H50.8573C50.6023 11.3466 50.4293 11.5146 50.4293 11.7622V28.1671C50.4293 28.4148 50.6023 28.5828 50.7708 28.5828C52.392 28.8304 54.3547 28.9984 55.464 28.9984C60.4131 28.9984 61.4368 26.9273 61.4368 23.8603V20.2963C61.4368 17.316 60.0716 15.8214 57.4276 15.8214ZM36.2668 14.3269C36.0118 14.3269 35.8388 14.1606 35.8388 13.9112V11.6738C35.8388 11.4244 36.0118 11.2581 36.2668 11.2581H38.9126C39.1694 11.2581 39.3407 11.5075 39.3407 11.6738V13.9094C39.3407 14.1571 39.1694 14.3251 38.9126 14.3251H36.2668V14.3269ZM8.70513 13.7432C5.63219 13.7432 3.15855 13.2479 3.15855 12.5847C3.15855 11.9214 5.63219 11.4244 8.70513 11.4244C11.7762 11.4244 14.2517 11.9214 14.2517 12.5829C14.2517 13.2462 11.7762 13.7432 8.70513 13.7432ZM42.92 7.19891C42.4937 7.19891 41.8107 7.03265 41.4691 6.78326C41.3872 6.78326 41.3872 6.7019 41.3872 6.61877L41.5575 5.9555L41.6395 5.87325H41.8098C42.2378 5.96169 42.6622 6.04128 43.0885 6.04128C43.6076 6.04128 43.6076 5.88209 43.6076 5.62563C43.6076 5.46644 43.6076 5.29842 42.838 5.13039C41.6449 4.88277 41.4719 4.55555 41.4719 3.64466C41.4719 2.8169 41.7287 2.23852 43.2661 2.23852C43.6914 2.23852 44.2889 2.31812 44.6322 2.40301C44.6322 2.40301 44.7142 2.48614 44.7142 2.56839L44.6295 3.31125L44.5448 3.39438H44.3736C44.2224 3.39438 44.0402 3.37935 43.8544 3.36166L43.6932 3.34574C43.5074 3.32806 43.3253 3.31037 43.1759 3.31037C42.6641 3.31037 42.6641 3.39262 42.6641 3.64112C42.6641 3.97718 42.6641 3.97718 43.2615 4.14167C44.5402 4.47419 44.7096 4.7227 44.7096 5.71583C44.7096 6.62142 44.3727 7.19979 42.9519 7.20864H42.9191L42.92 7.19891ZM39.1631 7.19891C38.653 7.19891 38.0547 7.03265 37.4572 6.78326C37.3716 6.78326 37.3716 6.7019 37.3716 6.61877L37.5428 5.9555L37.6339 5.87325H37.8069C38.2323 5.96169 38.6594 6.04128 39.0857 6.04128C39.5957 6.04128 39.5957 5.88209 39.5957 5.62563C39.5957 5.46644 39.5957 5.29842 38.8288 5.13039C37.6357 4.88277 37.4627 4.55555 37.4627 3.64466C37.4627 2.8169 37.7204 2.23852 39.2569 2.23852C39.6831 2.23852 40.2806 2.31812 40.623 2.40301C40.7068 2.40301 40.7924 2.48614 40.7924 2.56839L40.7086 3.31479L40.6249 3.39704H40.5338C40.3853 3.39704 40.2032 3.37935 40.0174 3.36166L39.8571 3.34663C39.6713 3.32894 39.4891 3.31479 39.3379 3.31479C38.8188 3.31479 38.8188 3.39438 38.8188 3.64201C38.8188 3.97541 38.8188 3.97541 39.4181 4.14079C40.6977 4.47419 40.8689 4.7227 40.9536 5.71495C40.9536 6.62142 40.6167 7.20068 39.1959 7.20952H39.1631V7.19891ZM54.6097 2.31016C54.0969 2.31016 53.4139 2.47642 52.7317 2.72581L52.6461 2.47642C52.6461 2.39329 52.5614 2.39329 52.4758 2.39329H51.708C51.6224 2.39329 51.5368 2.47642 51.5368 2.55866V6.95129C51.5368 7.03265 51.6224 7.11578 51.708 7.11578H52.7317C52.8173 7.11578 52.902 7.03265 52.902 6.9504V3.88255C53.2436 3.71718 53.7554 3.5518 54.0969 3.5518C54.352 3.5518 54.4385 3.63405 54.4385 3.88255V6.95129C54.4385 7.03265 54.5232 7.11578 54.6088 7.11578H55.6289C55.7108 7.11578 55.8019 7.03265 55.8019 6.9504V3.71452C55.7108 2.7205 55.3738 2.30573 54.6088 2.30573L54.6097 2.31016ZM46.4173 2.39329H45.3927C45.308 2.39329 45.2233 2.47642 45.2233 2.55866V6.95129C45.2233 7.03265 45.308 7.11578 45.3936 7.11578H46.4228C46.5121 7.11578 46.5959 7.03265 46.5959 6.9504V2.55601C46.5959 2.47376 46.5121 2.39063 46.4228 2.39063L46.4173 2.39329ZM32.4234 0.571501H31.3997C31.315 0.571501 31.2294 0.653746 31.2294 0.735992V6.95129C31.2294 7.03265 31.3113 7.11578 31.3933 7.11578H32.4225C32.5044 7.11578 32.59 7.03265 32.59 6.9504V0.734223C32.59 0.651978 32.5044 0.568848 32.4197 0.568848L32.4234 0.571501ZM25.9387 0.819122C25.9387 0.735992 25.854 0.735992 25.7684 0.735992H24.2328C24.1472 0.735992 24.0616 0.819122 24.0616 0.819122L22.0943 6.86816V7.03265C22.0943 7.11578 22.1763 7.11578 22.261 7.11578H23.3722C23.4559 7.11578 23.5406 7.03265 23.5406 7.03265L24.9068 2.55778C24.9068 2.55778 24.9068 2.47642 25.0771 2.47642C25.1609 2.47642 25.2465 2.55866 25.2465 2.55866L25.8449 4.63072H24.9906C24.9032 4.63072 24.8175 4.71297 24.8175 4.71297L24.5625 5.53542V5.69815C24.5625 5.69815 24.6472 5.78128 24.7328 5.78128H26.181L26.5234 6.94156C26.5234 7.02292 26.609 7.02292 26.6946 7.02292H27.8058C27.8914 7.02292 27.8914 7.02292 27.9788 6.93891V6.77088L25.9387 0.819122ZM34.7276 6.12176C35.1557 6.12176 35.4107 6.03863 35.581 5.95638V5.29311H34.7276C34.3861 5.29311 34.3014 5.45849 34.3014 5.70699C34.3014 6.03597 34.3852 6.11999 34.7203 6.12264L34.7276 6.12176ZM30.6319 6.12176C30.6319 6.03863 30.6319 6.03863 30.5472 6.03863H30.376C30.2057 6.12176 30.0344 6.12176 29.8641 6.12176C29.6091 6.12176 29.5226 6.03863 29.5226 5.79012V3.38731H30.4607C30.5472 3.38731 30.6319 3.30506 30.6319 3.22193V2.55866C30.6319 2.47642 30.5472 2.39329 30.4616 2.39329H29.5235V1.233C29.5235 1.15076 29.5235 1.15076 29.4379 1.15076C29.4379 1.15076 29.3523 1.07117 29.2666 1.15076L28.2429 1.31879C28.1573 1.31879 28.0726 1.40722 28.0726 1.48682V2.4773H27.5608C27.4788 2.4773 27.3968 2.56397 27.3968 2.64533V3.39262C27.3968 3.47663 27.4843 3.56064 27.5699 3.56064H28.0827V6.0457C28.0827 6.87346 28.5089 7.28823 29.4488 7.28823C29.7038 7.28823 30.1301 7.20422 30.3869 7.1202C30.7275 6.95483 30.7275 6.95483 30.7275 6.87258L30.6419 6.12618L30.6319 6.12176ZM48.8063 6.12176C49.2344 6.12176 49.4894 6.03863 49.6597 5.95638V5.29311H48.8063C48.4657 5.29311 48.38 5.45849 48.38 5.70699C48.38 6.03597 48.4638 6.11999 48.799 6.12264L48.8063 6.12176ZM34.9826 2.31016C34.4726 2.31016 33.8742 2.39329 33.448 2.47642C33.3624 2.47642 33.2777 2.55866 33.3624 2.64179L33.4535 3.30506C33.4535 3.38731 33.4535 3.38731 33.5427 3.38731H33.6274C34.0555 3.30506 34.4808 3.30506 34.8205 3.30506C35.5036 3.30506 35.6748 3.47044 35.6748 3.88432V4.29997H34.6457C33.621 4.29997 33.1948 4.71297 33.1948 5.62475C33.1948 6.53564 33.7067 7.03265 34.4744 7.03265C34.9845 7.03265 35.4125 6.86727 35.8388 6.7019V6.86727C35.8388 6.9504 35.9244 6.9504 36.0091 6.9504H36.7778C36.8597 6.9504 36.9508 6.86197 36.9508 6.78238V3.96214C36.9508 2.71962 36.4408 2.30485 34.9908 2.30485L34.9826 2.31016ZM48.9775 2.31016C48.4657 2.31016 47.8682 2.39329 47.441 2.47642C47.35 2.47642 47.268 2.55866 47.35 2.64179L47.4319 3.30506C47.4319 3.38731 47.4319 3.38731 47.5166 3.38731H47.6022C48.0303 3.30506 48.4556 3.30506 48.7954 3.30506C49.4784 3.30506 49.6515 3.47044 49.6515 3.88432V4.29997H48.6351C47.6123 4.29997 47.1851 4.71297 47.1851 5.62475C47.1851 6.53564 47.697 7.03265 48.4657 7.03265C48.9775 7.03265 49.4038 6.86727 49.8318 6.7019L49.9156 6.86727C49.9156 6.9504 50.0012 6.9504 50.0868 6.9504H50.8546C50.9402 6.9504 51.0249 6.86197 51.0249 6.78238V3.96214C50.9402 2.71962 50.4275 2.30485 48.9775 2.30485V2.31016ZM46.4183 0.570616H45.3927C45.308 0.570616 45.2233 0.653746 45.2233 0.735992V1.56464C45.2233 1.64423 45.308 1.72382 45.3936 1.72382H46.4228C46.5121 1.72382 46.5959 1.63893 46.5959 1.5558V0.734223C46.5959 0.651978 46.5121 0.568848 46.4228 0.568848L46.4183 0.570616Z" fill="#D2D6DC"/>
</svg>
