<svg width="117" height="23" viewBox="0 0 117 23" fill="none" xmlns="http://www.w3.org/2000/svg">
<path fill-rule="evenodd" clip-rule="evenodd" d="M115.316 19.6454C116.111 19.6454 116.744 20.2733 116.744 21.0604C116.744 21.8563 116.111 22.4754 115.309 22.4754C114.515 22.4754 113.87 21.8563 113.87 21.0604C113.87 20.2733 114.515 19.6454 115.309 19.6454H115.316ZM23.3761 22.2861H19.4415L19.2739 21.3222C17.4761 22.2861 15.8731 22.4435 14.8166 22.4435C11.9295 22.4435 10.394 20.5758 10.394 17.9899C10.394 14.9406 12.1863 13.8511 15.3923 13.8511H18.6528V13.1931C18.6528 11.6366 18.4707 11.1803 15.9934 11.1803H11.9696L12.3649 7.35986H16.7784C22.1921 7.35986 23.3797 9.02246 23.3797 13.2249V22.2861H23.3761ZM81.9931 16.2955C81.9931 19.4084 80.6689 22.4276 75.1259 22.4276C69.5775 22.4276 68.2278 19.4084 68.2278 16.2955V13.2886C68.2278 10.1757 69.5757 7.15646 75.1241 7.15646C80.6798 7.15646 82.0095 10.1757 82.0095 13.2904V16.2972L81.9931 16.2955ZM97.1083 16.2955C97.1083 19.4084 95.7822 22.4276 90.2411 22.4276C84.6908 22.4276 83.3411 19.4084 83.3411 16.2955V13.2886C83.3411 10.1757 84.689 7.15646 90.2393 7.15646C95.7767 7.15646 97.1064 10.1757 97.1064 13.2904V16.2972L97.1083 16.2955ZM115.309 19.8683C114.672 19.8683 114.143 20.3989 114.143 21.0586C114.143 21.7307 114.672 22.2578 115.316 22.2578C115.963 22.2755 116.482 21.7449 116.482 21.0728C116.482 20.4183 115.963 19.8842 115.316 19.8842H115.309V19.8683ZM7.24451 22.2561H2.52673V11.1838H0.166016V7.3634H2.52491V5.0729C2.52491 1.95995 3.85463 0.106323 7.63979 0.106323H10.791V3.92677H8.82378C7.34834 3.92677 7.24998 4.45738 7.24998 5.45494L7.23176 7.36517H10.802L10.383 11.1856H7.23358V22.2578L7.24451 22.2561ZM115.038 21.8846H114.779V20.3051C114.925 20.2875 115.052 20.2698 115.253 20.2698C115.502 20.2698 115.664 20.3175 115.763 20.3865C115.861 20.4573 115.908 20.5634 115.908 20.7137C115.908 20.9207 115.77 21.0462 115.599 21.0975V21.1099C115.737 21.1347 115.835 21.2585 115.872 21.492C115.908 21.736 115.945 21.8316 115.97 21.8811H115.697C115.661 21.8316 115.619 21.6865 115.588 21.4814C115.551 21.2779 115.442 21.2037 115.238 21.2037H115.056V21.8829L115.038 21.8846ZM115.038 21.0091H115.225C115.438 21.0091 115.619 20.933 115.619 20.7385C115.619 20.6005 115.517 20.4626 115.225 20.4626C115.141 20.4626 115.08 20.4679 115.038 20.4749V21.0091ZM15.1136 17.9315C15.1136 18.7664 15.5216 19.1997 16.4178 19.1997C17.3832 19.1997 17.9515 18.8955 18.6546 18.5806V16.9092H16.5489C15.5507 16.9092 15.1136 17.0861 15.1136 17.9298V17.9315ZM60.1821 10.9698C59.2166 10.9698 58.5244 11.2705 57.8213 11.5889V18.6284C58.4953 18.6903 58.8815 18.6903 59.5226 18.6903C61.836 18.6903 62.1493 17.6644 62.1493 16.2318V12.8641C62.1493 11.81 61.785 10.9592 60.1821 10.9592V10.9698ZM75.1096 10.9698C73.503 10.9698 72.9474 11.8188 72.9474 12.8624V16.7182C72.9474 17.7794 73.503 18.6284 75.1096 18.6284C76.7125 18.6284 77.2699 17.7794 77.2699 16.7182V12.8624C77.2699 11.8082 76.7052 10.9574 75.1023 10.9574L75.1096 10.9698ZM36.7534 11.4474C34.3053 11.0406 33.6022 10.9521 32.4255 10.9521C30.3088 10.9521 29.6695 11.3996 29.6695 13.1454V16.4352C29.6695 18.1774 30.307 18.6284 32.4255 18.6284C33.604 18.6284 34.3053 18.54 36.7534 18.1332V21.8546C34.6095 22.3233 33.2124 22.4453 32.032 22.4453C26.9645 22.4453 24.9499 19.863 24.9499 16.131V13.4602C24.9499 9.72111 26.9645 7.13346 32.032 7.13346C33.2124 7.13346 34.6095 7.25727 36.7534 7.72599V11.4474ZM51.5261 16.1345H42.8702V16.4352C42.8702 18.1774 43.5077 18.6284 45.6243 18.6284C47.5278 18.6284 48.6845 18.54 51.129 18.1332V21.8546C48.7738 22.3233 47.546 22.4453 45.2327 22.4453C40.1688 22.4453 38.1651 19.863 38.1651 16.131V13.0711C38.1651 9.80424 39.6588 7.12816 44.8502 7.12816C50.0507 7.12816 51.5352 9.7724 51.5352 13.0711V16.131L51.5261 16.1345ZM90.2228 10.9698C88.6199 10.9698 88.0643 11.8188 88.0643 12.8677V16.7288C88.0643 17.79 88.6199 18.639 90.2228 18.639C91.8258 18.639 92.3905 17.79 92.3905 16.7288V12.8659C92.3905 11.81 91.8258 10.9592 90.2228 10.9592V10.9698ZM112.622 22.2543H107.509L103.181 15.2501V22.2543H98.4635V1.24715L103.181 0.486599V14.0085L107.507 7.35809H112.608L107.881 14.6099L112.604 22.2507L112.622 22.2543ZM44.8374 10.5807C43.2345 10.5807 42.8702 11.4297 42.8702 12.4909V13.0799H46.8047V12.4856C46.8047 11.4421 46.4404 10.586 44.8374 10.586V10.5807ZM66.8707 16.2052C66.8707 19.8134 65.796 22.4488 59.3478 22.4488C57.0235 22.4488 55.6573 22.2472 53.089 21.8652V1.24361L57.8068 0.483061V7.69415C58.8268 7.32625 60.1474 7.14054 61.3497 7.14054C66.0674 7.14054 66.8507 9.19226 66.8507 12.4874V16.2194L66.8707 16.2052Z" fill="#D2D6DC"/>
</svg>
