<svg width="64" height="33" viewBox="0 0 64 33" fill="none" xmlns="http://www.w3.org/2000/svg">
<rect width="52.1846" height="32.9846" rx="1.96923" fill="#00B871"/>
<path d="M28.7271 20.4987V12.5943H27.2738V21.8457H32.8979V20.4987H28.7271ZM33.1902 17.2377C33.1902 18.5965 33.651 19.7189 34.5608 20.6169C35.4706 21.5031 36.593 21.952 37.9163 21.952C39.2397 21.952 40.3621 21.5031 41.2955 20.5933C42.229 19.6835 42.6898 18.5492 42.6898 17.2023C42.6898 15.8553 42.229 14.7328 41.3074 13.8231C40.3976 12.9133 39.2751 12.4643 37.9518 12.4643C36.6403 12.4643 35.5178 12.9251 34.5844 13.8467C33.651 14.7683 33.1902 15.9026 33.1902 17.2377ZM37.94 20.6051C37.0302 20.6051 36.274 20.2743 35.6478 19.6126C35.0216 18.9509 34.7144 18.1475 34.7144 17.2023C34.7144 16.257 35.0216 15.4536 35.6478 14.8037C36.274 14.1421 37.0302 13.8112 37.94 13.8112C38.8379 13.8112 39.5941 14.1421 40.2203 14.8037C40.8466 15.4536 41.1656 16.257 41.1656 17.2023C41.1656 18.1475 40.8466 18.9509 40.2203 19.6126C39.5941 20.2743 38.8379 20.6051 37.94 20.6051ZM52.7138 15.2055C52.4539 14.4375 51.9576 13.7994 51.2251 13.2677C50.4925 12.736 49.5946 12.4643 48.543 12.4643C47.2551 12.4643 46.1563 12.9251 45.2229 13.8349C44.2895 14.7447 43.8287 15.8789 43.8287 17.2377C43.8287 18.5965 44.2658 19.7307 45.1402 20.6169C46.0145 21.5031 47.1488 21.952 48.5312 21.952C49.8427 21.952 50.8824 21.5503 51.6623 20.7469C52.4539 19.9316 52.8438 18.9273 52.8438 17.7221V17.2141H47.9522V18.5374H51.2723C51.0479 19.7544 50.079 20.6169 48.5194 20.6169C47.5978 20.6169 46.8416 20.2861 46.239 19.6362C45.6364 18.9864 45.341 18.1711 45.341 17.2023C45.341 16.2334 45.6482 15.4299 46.2508 14.7801C46.8652 14.1303 47.6214 13.8112 48.5312 13.8112C49.9963 13.8112 50.9415 14.6147 51.4259 15.7962L52.7138 15.2055ZM53.9017 17.2377C53.9017 18.5965 54.3625 19.7189 55.2723 20.6169C56.1821 21.5031 57.3046 21.952 58.6279 21.952C59.9512 21.952 61.0737 21.5031 62.0071 20.5933C62.9405 19.6835 63.4013 18.5492 63.4013 17.2023C63.4013 15.8553 62.9405 14.7328 62.0189 13.8231C61.1091 12.9133 59.9867 12.4643 58.6633 12.4643C57.3518 12.4643 56.2294 12.9251 55.2959 13.8467C54.3625 14.7683 53.9017 15.9026 53.9017 17.2377ZM58.6515 20.6051C57.7417 20.6051 56.9855 20.2743 56.3593 19.6126C55.7331 18.9509 55.4259 18.1475 55.4259 17.2023C55.4259 16.257 55.7331 15.4536 56.3593 14.8037C56.9855 14.1421 57.7417 13.8112 58.6515 13.8112C59.5495 13.8112 60.3057 14.1421 60.9319 14.8037C61.5581 15.4536 61.8771 16.257 61.8771 17.2023C61.8771 18.1475 61.5581 18.9509 60.9319 19.6126C60.3057 20.2743 59.5495 20.6051 58.6515 20.6051Z" fill="white"/>
</svg>
