<svg width="64" height="34" viewBox="0 0 64 34" fill="none" xmlns="http://www.w3.org/2000/svg">
<rect y="0.50769" width="52.1846" height="32.9846" rx="1.96923" fill="#00B871"/>
<path d="M28.7271 21.0069V13.1024H27.2738V22.3539H32.8979V21.0069H28.7271ZM33.1902 17.7459C33.1902 19.1046 33.651 20.2271 34.5608 21.1251C35.4706 22.0112 36.593 22.4602 37.9163 22.4602C39.2397 22.4602 40.3621 22.0112 41.2955 21.1014C42.229 20.1916 42.6898 19.0574 42.6898 17.7104C42.6898 16.3635 42.229 15.241 41.3074 14.3312C40.3976 13.4214 39.2751 12.9724 37.9518 12.9724C36.6403 12.9724 35.5178 13.4332 34.5844 14.3548C33.651 15.2764 33.1902 16.4107 33.1902 17.7459ZM37.94 21.1132C37.0302 21.1132 36.274 20.7824 35.6478 20.1207C35.0216 19.4591 34.7144 18.6556 34.7144 17.7104C34.7144 16.7652 35.0216 15.9617 35.6478 15.3119C36.274 14.6502 37.0302 14.3194 37.94 14.3194C38.8379 14.3194 39.5941 14.6502 40.2203 15.3119C40.8466 15.9617 41.1656 16.7652 41.1656 17.7104C41.1656 18.6556 40.8466 19.4591 40.2203 20.1207C39.5941 20.7824 38.8379 21.1132 37.94 21.1132ZM52.7138 15.7136C52.4539 14.9456 51.9576 14.3076 51.2251 13.7759C50.4925 13.2442 49.5946 12.9724 48.543 12.9724C47.2551 12.9724 46.1563 13.4332 45.2229 14.343C44.2895 15.2528 43.8287 16.3871 43.8287 17.7459C43.8287 19.1046 44.2658 20.2389 45.1402 21.1251C46.0145 22.0112 47.1488 22.4602 48.5312 22.4602C49.8427 22.4602 50.8824 22.0585 51.6623 21.255C52.4539 20.4398 52.8438 19.4355 52.8438 18.2303V17.7222H47.9522V19.0455H51.2723C51.0479 20.2625 50.079 21.1251 48.5194 21.1251C47.5978 21.1251 46.8416 20.7942 46.239 20.1444C45.6364 19.4945 45.341 18.6793 45.341 17.7104C45.341 16.7415 45.6482 15.9381 46.2508 15.2883C46.8652 14.6384 47.6214 14.3194 48.5312 14.3194C49.9963 14.3194 50.9415 15.1228 51.4259 16.3044L52.7138 15.7136ZM53.9017 17.7459C53.9017 19.1046 54.3625 20.2271 55.2723 21.1251C56.1821 22.0112 57.3046 22.4602 58.6279 22.4602C59.9512 22.4602 61.0737 22.0112 62.0071 21.1014C62.9405 20.1916 63.4013 19.0574 63.4013 17.7104C63.4013 16.3635 62.9405 15.241 62.0189 14.3312C61.1091 13.4214 59.9867 12.9724 58.6633 12.9724C57.3518 12.9724 56.2294 13.4332 55.2959 14.3548C54.3625 15.2764 53.9017 16.4107 53.9017 17.7459ZM58.6515 21.1132C57.7417 21.1132 56.9855 20.7824 56.3593 20.1207C55.7331 19.4591 55.4259 18.6556 55.4259 17.7104C55.4259 16.7652 55.7331 15.9617 56.3593 15.3119C56.9855 14.6502 57.7417 14.3194 58.6515 14.3194C59.5495 14.3194 60.3057 14.6502 60.9319 15.3119C61.5581 15.9617 61.8771 16.7652 61.8771 17.7104C61.8771 18.6556 61.5581 19.4591 60.9319 20.1207C60.3057 20.7824 59.5495 21.1132 58.6515 21.1132Z" fill="#161E2E"/>
</svg>
